<?xml version="1.0" encoding="UTF-8" standalone="no"?>
<!-- Created with Inkscape (http://www.inkscape.org/) -->

<svg
   xmlns:osb="http://www.openswatchbook.org/uri/2009/osb"
   xmlns:dc="http://purl.org/dc/elements/1.1/"
   xmlns:cc="http://creativecommons.org/ns#"
   xmlns:rdf="http://www.w3.org/1999/02/22-rdf-syntax-ns#"
   xmlns:svg="http://www.w3.org/2000/svg"
   xmlns="http://www.w3.org/2000/svg"
   xmlns:sodipodi="http://sodipodi.sourceforge.net/DTD/sodipodi-0.dtd"
   xmlns:inkscape="http://www.inkscape.org/namespaces/inkscape"
   sodipodi:docname="sap-logo2.svg"
   inkscape:version="0.92.3 (2405546, 2018-03-11)"
   width="92.85881mm"
   height="38.624279mm"
   viewBox="0 0 92.85881 38.624279"
   version="1.1"
   id="svg8">
  <sodipodi:namedview
     fit-margin-bottom="0"
     fit-margin-right="0"
     fit-margin-left="0"
     fit-margin-top="0"
     inkscape:pagecheckerboard="false"
     id="base"
     pagecolor="#ffffff"
     bordercolor="#666666"
     borderopacity="1.0"
     inkscape:pageopacity="1"
     inkscape:pageshadow="2"
     inkscape:zoom="1.979899"
     inkscape:cx="43.612884"
     inkscape:cy="4.3168882"
     inkscape:document-units="mm"
     inkscape:current-layer="layer1"
     showgrid="false"
     inkscape:window-width="2560"
     inkscape:window-height="1377"
     inkscape:window-x="-8"
     inkscape:window-y="-8"
     inkscape:window-maximized="1"
     borderlayer="false" />
  <defs
     id="defs2">
    <linearGradient
       osb:paint="solid"
       id="linearGradient4580">
      <stop
         id="stop4578"
         offset="0"
         style="stop-color:#000000;stop-opacity:1;" />
    </linearGradient>
  </defs>
  <metadata
     id="metadata5">
    <rdf:RDF>
      <cc:Work
         rdf:about="">
        <dc:format>image/svg+xml</dc:format>
        <dc:type
           rdf:resource="http://purl.org/dc/dcmitype/StillImage" />
        <dc:title></dc:title>
      </cc:Work>
    </rdf:RDF>
  </metadata>
  <g
     transform="translate(-50.928699,-111.35123)"
     id="layer1"
     inkscape:groupmode="layer"
     inkscape:label="Layer 1">
    <path
       inkscape:transform-center-y="-78.851792"
       inkscape:transform-center-x="-11.759859"
       sodipodi:nodetypes="cscccccscccsccccsccccccccccscscccccccccsccsccssccccccsscscccccccccccccccccsscscc"
       inkscape:connector-curvature="0"
       id="path21"
       d="m 51.239441,149.97109 c -0.08787,-0.078 -0.159759,-8.88877 -0.159759,-19.5794 v -19.43754 h 46.429408 46.4294 l -22.04572,19.57941 -22.045739,19.57941 H 75.623113 c -13.323152,0 -24.295805,-0.0638 -24.383672,-0.14188 z m 14.532086,-7.96908 c 1.962587,-0.26949 3.945962,-0.87614 5.258034,-1.60829 0.494253,-0.27578 0.898643,-0.45589 0.898643,-0.40022 0,0.0556 -0.215152,0.58595 -0.478117,1.17843 l -0.478119,1.07725 3.878515,-0.0585 3.878513,-0.0585 0.608029,-1.66492 c 0.527643,-1.44482 0.672118,-1.65141 1.092818,-1.56267 4.36775,0.92127 6.263607,0.95937 8.868932,0.17825 l 1.316251,-0.39463 0.650967,1.77519 0.650968,1.7752 h 6.06138 6.061379 v -2.95379 -2.95378 l 2.93556,-0.0909 c 2.68541,-0.0832 3.06831,-0.14756 4.49322,-0.75625 3.98266,-1.70127 6.31089,-5.63217 5.53912,-9.352 -0.60797,-2.93029 -2.5214,-5.20074 -5.47017,-6.49081 l -1.61438,-0.70628 -6.29402,-0.0661 -6.29403,-0.0661 -0.0625,9.09109 -0.06249,9.09109 -4.073849,-9.07578 -4.073849,-9.07578 -3.876185,-0.002 -3.876189,-0.002 -2.380287,5.3737 c -1.309161,2.95553 -2.79999,6.3535 -3.31296,7.55102 -0.512967,1.19753 -0.991884,2.17916 -1.064257,2.18141 -0.07237,0.002 -0.273631,-0.34477 -0.447237,-0.77114 -0.454138,-1.11534 -2.214741,-2.57609 -3.93035,-3.26098 -0.814979,-0.32532 -2.706382,-0.89305 -4.203119,-1.26158 -4.612885,-1.1358 -6.159401,-2.00277 -5.982957,-3.35399 0.104708,-0.80186 1.277953,-1.46772 2.880976,-1.63503 1.462072,-0.15261 4.723201,0.13409 6.662054,0.58568 0.724905,0.16884 1.384378,0.24192 1.465493,0.1624 0.08111,-0.0795 0.475116,-0.91073 0.875556,-1.84714 0.40044,-0.93641 0.804144,-1.87067 0.897119,-2.07615 0.131154,-0.28985 -0.02111,-0.44416 -0.679316,-0.68839 -2.40263,-0.89154 -9.745757,-1.26962 -12.460798,-0.64159 -2.824089,0.65327 -4.570618,1.86298 -5.615219,3.88935 -0.516844,1.00259 -0.582418,1.37734 -0.487314,2.78505 0.131591,1.9478 0.865686,3.39375 2.312172,4.55432 1.343852,1.07822 1.871442,1.2854 5.796401,2.2763 3.596464,0.90796 4.418809,1.26888 5.014243,2.20065 0.328121,0.51347 0.312221,0.59209 -0.221843,1.09695 -0.756366,0.71501 -1.860543,0.9662 -4.253573,0.96765 -2.298039,0.001 -4.014977,-0.28803 -5.758405,-0.97067 -0.689367,-0.26991 -1.294758,-0.42503 -1.345315,-0.3447 -0.05056,0.0803 -0.445301,1.19092 -0.877211,2.46799 -0.917641,2.71327 -0.963657,2.62207 1.678634,3.32711 2.902995,0.77463 6.890359,1.01844 9.899081,0.60532 z m 17.190987,-7.76045 c -0.455279,-0.17539 -0.861603,-0.34893 -0.902943,-0.38565 -0.04134,-0.0367 0.643017,-1.90617 1.520792,-4.15433 0.877773,-2.24818 1.67372,-4.01021 1.76877,-3.91562 0.362896,0.36114 3.149758,7.76323 3.028492,8.04388 -0.309701,0.71675 -3.912362,0.99067 -5.415111,0.41172 z m 21.077206,-6.68747 v -2.97949 h 1.92899 c 2.1577,0 2.93855,0.25652 3.9136,1.28561 0.89373,0.94328 0.88479,2.45391 -0.0202,3.40904 -0.8957,0.94535 -1.90921,1.26431 -4.01744,1.26431 h -1.80497 z"
       style="fill:#ffffff;stroke-width:0.22583117;opacity:1" />
    <rect
       style="stroke-width:0.26458332;opacity:0.00000001"
       y="110.95415"
       x="50.394161"
       height="39.288624"
       width="93.544334"
       id="rect54" />
    <rect
       y="110.95415"
       x="50.394161"
       height="39.28862"
       width="93.544334"
       id="rect4567"
       style="opacity:0;stroke-width:0.26458332" />
    <rect
       y="110.95415"
       x="50.394161"
       height="39.288616"
       width="93.544327"
       id="rect4571"
       style="opacity:0;stroke-width:0.26458332" />
    <g
       style="opacity:0.00000001;fill-rule:nonzero;fill-opacity:0;fill:#ffffff;stroke:#ffffff;stroke-opacity:1"
       id="g4576">
      <rect
         style="opacity:0;stroke-width:0.26458332;fill-rule:nonzero;fill-opacity:0;fill:#ffffff;stroke:#ffffff;stroke-opacity:1"
         id="rect4573"
         width="92.85881"
         height="39.288616"
         x="51.079681"
         y="110.95415" />
    </g>
    <rect
       y="118.43771"
       x="80.328346"
       height="82.051743"
       width="37.952274"
       id="rect4584"
       style="opacity:0;fill:#ffffff;fill-opacity:0;fill-rule:nonzero;stroke:#ffffff;stroke-width:0.26458332;stroke-opacity:1" />
    <rect
       y="107.47964"
       x="49.075161"
       height="45.168549"
       width="96.066048"
       id="rect4586"
       style="opacity:1;fill:#ffffff;fill-opacity:0;fill-rule:nonzero;stroke:#ffffff;stroke-width:0.26458332;stroke-opacity:1;" />
  </g>
  <path
     transform="scale(0.26458333)"
     inkscape:connector-curvature="0"
     id="path50"
     d=""
     style="stroke-width:1.01015258" />
</svg>
