<?xml version="1.0" encoding="UTF-8" standalone="no"?>
<!-- Created with Inkscape (http://www.inkscape.org/) -->

<svg
   xmlns:dc="http://purl.org/dc/elements/1.1/"
   xmlns:cc="http://creativecommons.org/ns#"
   xmlns:rdf="http://www.w3.org/1999/02/22-rdf-syntax-ns#"
   xmlns:svg="http://www.w3.org/2000/svg"
   xmlns="http://www.w3.org/2000/svg"
   xmlns:sodipodi="http://sodipodi.sourceforge.net/DTD/sodipodi-0.dtd"
   xmlns:inkscape="http://www.inkscape.org/namespaces/inkscape"
   width="79.375824mm"
   height="28.90572mm"
   viewBox="0 0 79.375824 28.90572"
   version="1.1"
   id="svg8"
   inkscape:version="0.92.3 (2405546, 2018-03-11)"
   sodipodi:docname="unity-logo.svg">
  <sodipodi:namedview
     id="base"
     pagecolor="#ffffff"
     bordercolor="#666666"
     borderopacity="1.0"
     inkscape:pageopacity="0.0"
     inkscape:pageshadow="2"
     inkscape:zoom="1.979899"
     inkscape:cx="-68.741076"
     inkscape:cy="-64.732282"
     inkscape:document-units="mm"
     inkscape:current-layer="g3732"
     showgrid="false"
     inkscape:window-width="2560"
     inkscape:window-height="1377"
     inkscape:window-x="-8"
     inkscape:window-y="-8"
     inkscape:window-maximized="1"
     fit-margin-top="0"
     fit-margin-left="0"
     fit-margin-right="0"
     fit-margin-bottom="0" />
  <defs
     id="defs2">
    <clipPath
       clipPathUnits="userSpaceOnUse"
       id="a">
      <path
         inkscape:connector-curvature="0"
         id="path3713"
         d="M 0,0 H 2467.7 V 3078.5 H 0 Z" />
    </clipPath>
  </defs>
  <metadata
     id="metadata5">
    <rdf:RDF>
      <cc:Work
         rdf:about="">
        <dc:format>image/svg+xml</dc:format>
        <dc:type
           rdf:resource="http://purl.org/dc/dcmitype/StillImage" />
        <dc:title></dc:title>
      </cc:Work>
    </rdf:RDF>
  </metadata>
  <g
     transform="translate(-53.99646,-18.694795)"
     inkscape:label="Layer 1"
     inkscape:groupmode="layer"
     id="layer1">
    <g
       id="g3734"
       transform="matrix(0.33072699,0,0,-0.33072699,20.523631,190.60362)">
      <g
         id="g3732"
         transform="matrix(0.19707,0,0,0.19707,-14.645378,-187.08917)">
        <g
           transform="translate(4.1007122,508.48832)"
           id="g3730"
           clip-path="url(#a)"
           style="opacity:1;fill:#ffffff">
          <path
             id="path3718"
             d="m 1263.9,2944.2 h -42.52 v -98.34 c 0,-25.32 -10.39,-45.44 -40.9,-45.44 -30.18,-0.33 -38.94,20.44 -38.94,46.73 v 97.05 h -42.52 v -107.76 c 0,-31.15 11.03,-75.62 69.46,-75.95 32.13,-0.32 48.03,15.26 55.5,29.21 v -23.69 h 39.92 v 178.19"
             inkscape:connector-curvature="0" />
          <path
             id="path3720"
             d="m 1280.8,2766 h 42.52 v 98.35 c 0,24.99 10.38,45.11 40.57,45.44 29.86,0 38.62,-20.45 38.62,-47.06 V 2766 h 42.52 v 107.44 c 0,31.48 -11.03,75.95 -69.13,76.27 -31.81,0.32 -47.72,-15.25 -55.5,-29.21 0.32,8.44 0.32,15.9 0.32,23.69 H 1280.8 V 2766"
             inkscape:connector-curvature="0" />
          <path
             id="path3722"
             d="m 1461.3,2766 h 42.52 v 178.19 h -42.52 z m 0,202.21 h 42.52 v 37.98 h -42.52 v -37.98"
             inkscape:connector-curvature="0" />
          <path
             id="path3724"
             d="m 1548.3,2766 h 42.52 v 145.41 h 30.51 l -12.62,32.78 h -17.89 v 62 h -42.52 v -62 h -29.54 v -32.78 h 29.54 V 2766"
             inkscape:connector-curvature="0" />
          <path
             id="path3726"
             d="m 1662.4,2703.7 h 45.44 l 93.81,240.51 h -45.44 l -42.85,-118.47 -43.49,118.47 h -45.44 l 67.18,-171.37 -29.21,-69.14"
             inkscape:connector-curvature="0" />
          <path
             id="path3728"
             d="m 865.9,2856.7 77.609,134.02 37.504,-134.02 -37.504,-133.99 z m -37.829,-21.76 77.622,-134 -135.18,34.63 -97.668,99.37 h 155.23 z m 77.606,177.56 -77.606,-134.02 h -155.23 l 97.668,99.37 135.17,34.65 z m 110.8,-110.19 -47.353,176.15 -176.73,-47.21 -26.161,-45.99 -53.085,0.38 -129.36,-128.95 129.36,-128.92 h 0.003 l 53.063,0.39 26.199,-45.99 176.71,-47.21 47.353,176.13 -26.892,45.61 26.892,45.61"
             inkscape:connector-curvature="0" />
        </g>
      </g>
    </g>
  </g>
</svg>
