<?xml version="1.0" encoding="UTF-8" standalone="no"?>
<svg
   xmlns:dc="http://purl.org/dc/elements/1.1/"
   xmlns:cc="http://creativecommons.org/ns#"
   xmlns:rdf="http://www.w3.org/1999/02/22-rdf-syntax-ns#"
   xmlns:svg="http://www.w3.org/2000/svg"
   xmlns="http://www.w3.org/2000/svg"
   xmlns:sodipodi="http://sodipodi.sourceforge.net/DTD/sodipodi-0.dtd"
   xmlns:inkscape="http://www.inkscape.org/namespaces/inkscape"
   width="1140"
   height="900"
   viewBox="0 0 128.26256 101.52"
   preserveAspectRatio="xMinYMin meet"
   version="1.1"
   id="svg8"
   sodipodi:docname="nodejs-logo.svg"
   inkscape:version="0.92.3 (2405546, 2018-03-11)">
  <sodipodi:namedview
     pagecolor="#ffffff"
     bordercolor="#666666"
     borderopacity="1"
     objecttolerance="10"
     gridtolerance="10"
     guidetolerance="10"
     inkscape:pageopacity="0"
     inkscape:pageshadow="2"
     inkscape:window-width="2560"
     inkscape:window-height="1377"
     id="namedview10"
     showgrid="false"
     inkscape:zoom="0.3776"
     inkscape:cx="-516.7506"
     inkscape:cy="1282.7633"
     inkscape:window-x="-8"
     inkscape:window-y="-8"
     inkscape:window-maximized="1"
     inkscape:current-layer="svg8"
     viewbox-width="255.5" />
  <metadata
     id="metadata14">
    <rdf:RDF>
      <cc:Work
         rdf:about="">
        <dc:format>image/svg+xml</dc:format>
        <dc:type
           rdf:resource="http://purl.org/dc/dcmitype/StillImage" />
        <dc:title></dc:title>
      </cc:Work>
    </rdf:RDF>
  </metadata>
  <defs
     id="defs12" />
  <g
     id="g6"
     transform="matrix(0.2,0,0,0.2,102.39996,-67.6835)"
     style="fill:#7337b4">
    <path
       id="path2"
       d="m 116.504,3.58 c 6.962,-3.985 16.03,-4.003 22.986,0 34.995,19.774 70.001,39.517 104.99,59.303 6.581,3.707 10.983,11.031 10.916,18.614 v 118.968 c 0.049,7.897 -4.788,15.396 -11.731,19.019 -34.88,19.665 -69.742,39.354 -104.616,59.019 -7.106,4.063 -16.356,3.75 -23.24,-0.646 -10.457,-6.062 -20.932,-12.094 -31.39,-18.15 -2.137,-1.274 -4.546,-2.288 -6.055,-4.36 1.334,-1.798 3.719,-2.022 5.657,-2.807 4.365,-1.388 8.374,-3.616 12.384,-5.778 1.014,-0.694 2.252,-0.428 3.224,0.193 8.942,5.127 17.805,10.403 26.777,15.481 1.914,1.105 3.852,-0.362 5.488,-1.274 34.228,-19.345 68.498,-38.617 102.72,-57.968 1.268,-0.61 1.969,-1.956 1.866,-3.345 0.024,-39.245 0.006,-78.497 0.012,-117.742 0.145,-1.576 -0.767,-3.025 -2.192,-3.67 -34.759,-19.575 -69.5,-39.18 -104.253,-58.76 a 3.621,3.621 0 0 0 -4.094,-0.006 C 91.2,39.257 56.465,58.88 21.712,78.454 c -1.42,0.646 -2.373,2.071 -2.204,3.653 0.006,39.245 0,78.497 0,117.748 a 3.329,3.329 0 0 0 1.89,3.303 c 9.274,5.259 18.56,10.481 27.84,15.722 5.228,2.814 11.647,4.486 17.407,2.33 5.083,-1.823 8.646,-7.01 8.549,-12.407 0.048,-39.016 -0.024,-78.038 0.036,-117.048 -0.127,-1.732 1.516,-3.163 3.2,-3 4.456,-0.03 8.918,-0.06 13.374,0.012 1.86,-0.042 3.14,1.823 2.91,3.568 -0.018,39.263 0.048,78.527 -0.03,117.79 0.012,10.464 -4.287,21.85 -13.966,26.97 -11.924,6.177 -26.662,4.867 -38.442,-1.056 -10.198,-5.09 -19.93,-11.097 -29.947,-16.55 C 5.368,215.886 0.555,208.357 0.604,200.466 V 81.497 C 0.531,73.757 5.108,66.3 11.894,62.647 46.768,42.966 81.636,23.27 116.504,3.58 Z"
       inkscape:connector-curvature="0" />
    <path
       id="path4"
       d="m 146.928,85.99 c 15.21,-0.979 31.493,-0.58 45.18,6.913 10.597,5.742 16.472,17.793 16.659,29.566 -0.296,1.588 -1.956,2.464 -3.472,2.355 -4.413,-0.006 -8.827,0.06 -13.24,-0.03 -1.872,0.072 -2.96,-1.654 -3.195,-3.309 -1.268,-5.633 -4.34,-11.212 -9.642,-13.929 -8.139,-4.075 -17.576,-3.87 -26.451,-3.785 -6.479,0.344 -13.446,0.905 -18.935,4.715 -4.214,2.886 -5.494,8.712 -3.99,13.404 1.418,3.369 5.307,4.456 8.489,5.458 18.33,4.794 37.754,4.317 55.734,10.626 7.444,2.572 14.726,7.572 17.274,15.366 3.333,10.446 1.872,22.932 -5.56,31.318 -6.027,6.901 -14.805,10.657 -23.56,12.697 -11.647,2.597 -23.734,2.663 -35.562,1.51 -11.122,-1.268 -22.696,-4.19 -31.282,-11.768 -7.342,-6.375 -10.928,-16.308 -10.572,-25.895 0.085,-1.619 1.697,-2.748 3.248,-2.615 4.444,-0.036 8.888,-0.048 13.332,0.006 1.775,-0.127 3.091,1.407 3.182,3.08 0.82,5.367 2.837,11 7.517,14.182 9.032,5.827 20.365,5.428 30.707,5.591 8.568,-0.38 18.186,-0.495 25.178,-6.158 3.689,-3.23 4.782,-8.634 3.785,-13.283 -1.08,-3.925 -5.186,-5.754 -8.712,-6.95 -18.095,-5.724 -37.736,-3.647 -55.656,-10.12 -7.275,-2.571 -14.31,-7.432 -17.105,-14.906 -3.9,-10.578 -2.113,-23.662 6.098,-31.765 8.006,-8.06 19.563,-11.164 30.551,-12.275 z"
       inkscape:connector-curvature="0" />
  </g>
  <path
     inkscape:connector-curvature="0"
     id="path3948"
     d="m 62.3589,74.780892 c -0.316349,-0.0561 -0.797034,-0.181271 -1.068191,-0.278128 -0.591508,-0.211265 -10.775858,-5.820028 -11.131624,-6.130436 -0.136843,-0.11943 -0.248793,-0.254926 -0.248793,-0.301173 0,-0.144062 0.488744,-0.377138 1.43306,-0.683394 0.499817,-0.162103 1.550843,-0.601609 2.335611,-0.976684 1.221827,-0.58395 1.460787,-0.672648 1.662972,-0.617257 0.129829,0.03561 1.539936,0.787347 3.133525,1.670603 3.992791,2.213035 4.596635,2.540024 4.798862,2.598582 0.09682,0.02799 0.318605,0.0039 0.493022,-0.05479 0.174403,-0.05807 3.515544,-1.830918 7.424731,-3.939541 3.909187,-2.108624 10.380003,-5.59694 14.379589,-7.751824 3.999572,-2.154871 7.382876,-4.022234 7.518468,-4.149663 l 0.246497,-0.23169 0.0242,-15.717421 c 0.01637,-10.599575 -0.0028,-15.808406 -0.06024,-15.99685 -0.04647,-0.153693 -0.168287,-0.352254 -0.270735,-0.441253 C 92.878003,21.648034 64.901605,6.5497737 63.971069,6.0975616 63.809785,6.019132 63.568652,5.9741922 63.395885,5.9902254 63.185545,6.0098024 58.981849,8.2345425 49.04749,13.584085 32.42071,22.537417 33.914793,21.720391 33.762464,21.94247 c -0.108516,0.158265 -0.123224,2.07625 -0.122811,16.068255 3.71e-4,15.373432 0.0055,15.894909 0.153388,16.084786 0.180881,0.231998 8.097989,4.526656 8.886399,4.820471 1.717848,0.640156 3.332148,0.620331 4.539727,-0.05571 0.79786,-0.44668 1.521164,-1.45592 1.697864,-2.369067 0.06258,-0.32314 0.0894,-5.157327 0.0894,-16.074524 V 24.804262 l 0.240198,-0.229449 0.240184,-0.229462 h 2.149035 2.149034 l 0.240186,0.229462 0.240184,0.229449 -3.3e-4,16.117434 c -3.3e-4,17.553489 0.01981,16.755842 -0.46062,18.211067 -0.771316,2.336312 -2.35833,3.919412 -4.658869,4.647373 -1.262756,0.399565 -1.867825,0.480931 -3.549006,0.477265 -1.412735,-0.0026 -1.654996,-0.02431 -2.547243,-0.223117 -1.841502,-0.410325 -2.833336,-0.833027 -6.327027,-2.696448 -4.266782,-2.275771 -5.518384,-2.964211 -5.95147,-3.273555 C 29.76041,57.34264 28.818211,55.88626 28.58401,54.68424 28.477694,54.138561 28.4645,51.916566 28.483472,37.729009 l 0.02173,-16.327268 0.192985,-0.549475 c 0.106178,-0.30221 0.324724,-0.790447 0.485746,-1.084957 0.315552,-0.57717 1.233036,-1.573733 1.778182,-1.931426 0.490926,-0.322127 29.590024,-16.0081613 30.034965,-16.1905228 1.431356,-0.5866305 3.384161,-0.6041176 4.83755,-0.04336 0.49811,0.1922025 28.936298,15.5011888 29.952859,16.1243838 1.34071,0.821887 2.338306,2.247379 2.599561,3.714545 0.06491,0.364408 0.08417,5.187914 0.06738,16.876743 l -0.02338,16.366511 -0.217973,0.610556 c -0.395828,1.108751 -1.214896,2.208278 -2.108917,2.831026 -0.211579,0.147374 -2.566278,1.44294 -5.232658,2.879034 -2.666386,1.436082 -9.303587,5.013699 -14.749341,7.950239 -5.445754,2.936542 -10.111885,5.421279 -10.369178,5.521643 -0.563383,0.21978 -1.722565,0.422991 -2.357258,0.413256 -0.253938,-0.0039 -0.720539,-0.05295 -1.036889,-0.109049 z"
     style="opacity:1;fill:#ffffff;fill-opacity:1;fill-rule:nonzero;stroke:#000000;stroke-width:0.08031178;stroke-opacity:1" />
  <path
     inkscape:connector-curvature="0"
     id="path3950"
     d="m 69.795199,53.308963 c -4.615726,-0.333769 -7.971639,-1.496177 -10.073102,-3.489077 -0.726192,-0.688677 -1.165026,-1.26657 -1.625288,-2.140354 -0.60639,-1.151188 -0.954673,-2.565617 -0.95532,-3.879695 -3.16e-4,-0.662978 0.0055,-0.684919 0.252493,-0.883085 l 0.252811,-0.203226 h 2.17749 2.177504 l 0.225152,0.215864 c 0.172312,0.165203 0.247405,0.344845 0.319898,0.765339 0.321671,1.865695 1.189218,3.126471 2.638591,3.834552 1.331288,0.650392 2.544451,0.93158 4.650864,1.077955 1.47875,0.102739 4.815449,0.05544 6.033797,-0.08566 2.403935,-0.278272 4.216377,-1.160832 4.842653,-2.35811 0.329675,-0.63025 0.450937,-1.235484 0.401027,-2.001585 -0.05832,-0.895606 -0.345093,-1.360496 -1.170694,-1.897936 -1.100139,-0.716162 -3.807977,-1.27779 -8.627744,-1.789479 -4.004248,-0.425106 -5.663989,-0.710144 -7.521512,-1.29169 -1.714203,-0.536678 -2.889944,-1.199616 -3.875726,-2.1853 -1.315486,-1.315365 -1.859285,-2.905021 -1.769147,-5.171713 0.05006,-1.257912 0.228605,-2.0024 0.715548,-2.983051 0.442672,-0.891509 0.867175,-1.459745 1.57476,-2.107994 2.17727,-1.994688 5.123656,-2.970885 9.595868,-3.179312 4.43666,-0.206772 7.950954,0.360412 10.770728,1.738304 2.194971,1.072581 3.712325,2.91439 4.469984,5.425784 0.23493,0.778715 0.431325,2.203733 0.347638,2.522301 -0.03163,0.120481 -0.171942,0.281385 -0.321067,0.368243 -0.244365,0.142341 -0.421739,0.154298 -2.294667,0.154561 -1.399324,3.02e-4 -2.096732,-0.02877 -2.245265,-0.09342 -0.262602,-0.114306 -0.394481,-0.346487 -0.572942,-1.008649 -0.308936,-1.146354 -1.156953,-2.477643 -1.914173,-3.005071 -1.307921,-0.911004 -3.041736,-1.330278 -5.932917,-1.43469 -2.486358,-0.08974 -4.74059,0.151527 -6.085081,0.651417 -1.585542,0.589521 -2.33986,1.469019 -2.438442,2.843166 -0.0777,1.083946 0.223268,1.743021 1.007664,2.206138 0.770229,0.454747 3.160824,0.994644 6.248633,1.411197 0.990734,0.133657 2.596314,0.349718 3.567958,0.480143 3.829956,0.51408 6.586727,1.170173 8.230953,1.958898 1.315734,0.631144 2.563788,1.696696 3.082845,2.632007 0.951895,1.715311 1.127178,4.500038 0.409595,6.507377 -1.242745,3.476412 -4.713895,5.586258 -10.338096,6.283777 -1.196713,0.148411 -4.827909,0.213722 -6.233271,0.112068 z"
     style="opacity:1;fill:#ffffff;fill-opacity:1;fill-rule:nonzero;stroke:#000000;stroke-width:0.08031178;stroke-opacity:1" />
</svg>
